<svg viewBox="0 0 200 200" xmlns="http://www.w3.org/2000/svg">
              <path fill="#FFAD01" d="M41,-71.6C51.8,-64.7,58.5,-51.2,67,-38.1C75.5,-25.1,85.9,-12.5,87.3,0.8C88.7,14.2,81.2,28.3,71.7,39.7C62.3,51.1,50.9,59.8,38.6,65.4C26.3,71,13.2,73.7,0.3,73.2C-12.5,72.6,-25.1,68.9,-38.8,64.1C-52.5,59.2,-67.3,53.4,-77.6,42.5C-87.8,31.6,-93.4,15.8,-91.9,0.8C-90.5,-14.2,-82.1,-28.3,-73.1,-41.3C-64.1,-54.3,-54.5,-66,-42.2,-72C-29.9,-78.1,-15,-78.4,0.1,-78.5C15.1,-78.6,30.1,-78.4,41,-71.6Z" transform="translate(100 100)"></path>
            </svg>