<svg width="218" height="59" viewBox="0 0 218 59" fill="none" xmlns="http://www.w3.org/2000/svg">
<g filter="url(#filter0_d)">
<path d="M99.3545 21.8261H91.9149V42H85.9393V21.8261H78.6359V17.2125H99.3545V21.8261ZM101.891 42V17.2125H110.795C113.984 17.2125 116.407 17.797 118.064 18.966C119.733 20.135 120.567 21.8318 120.567 24.0563C120.567 25.3388 120.272 26.4341 119.682 27.342C119.091 28.25 118.223 28.9196 117.077 29.3509C118.371 29.6914 119.364 30.327 120.056 31.2576C120.748 32.1883 121.095 33.3232 121.095 34.6625C121.095 37.0913 120.323 38.9186 118.779 40.1443C117.247 41.3587 114.972 41.9773 111.953 42H101.891ZM107.867 31.4619V37.4034H111.782C112.861 37.4034 113.689 37.1594 114.268 36.6714C114.847 36.172 115.136 35.474 115.136 34.5774C115.136 32.5118 114.109 31.4733 112.055 31.4619H107.867ZM107.867 27.5463H110.982C112.287 27.535 113.218 27.2966 113.774 26.8313C114.33 26.366 114.608 25.6793 114.608 24.7713C114.608 23.7272 114.308 22.9781 113.706 22.5241C113.105 22.0588 112.134 21.8261 110.795 21.8261H107.867V27.5463ZM139.77 31.496H130.373V37.4034H141.473V42H124.397V17.2125H141.507V21.8261H130.373V27.0526H139.77V31.496ZM164.626 42H158.684V31.6492H149.883V42H143.907V17.2125H149.883V27.0526H158.684V17.2125H164.626V42ZM187.371 21.8261H179.931V42H173.955V21.8261H166.652V17.2125H187.371V21.8261ZM201.943 37.3694H193.755L192.325 42H185.94L195.031 17.2125H200.65L209.809 42H203.39L201.943 37.3694ZM195.185 32.7558H200.513L197.84 24.1585L195.185 32.7558Z" fill="white"/>
</g>
<path d="M89.1815 51.0425L91.0099 55.4178L92.8451 51.0425H93.4035V56H92.9847V53.8413L93.0188 51.6281L91.1733 56H90.8499L89.0112 51.6452L89.0453 53.8277V56H88.6265V51.0425H89.1815ZM98.3236 53.7902C98.3236 54.2465 98.2441 54.6471 98.0852 54.9922C97.9286 55.3372 97.7039 55.6028 97.4111 55.7889C97.1182 55.975 96.78 56.0681 96.3964 56.0681C95.8176 56.0681 95.35 55.8615 94.9936 55.4484C94.6372 55.033 94.459 54.4735 94.459 53.7698V53.2591C94.459 52.8074 94.5385 52.4079 94.6974 52.0606C94.8585 51.711 95.0855 51.4431 95.3784 51.257C95.6712 51.0686 96.0083 50.9744 96.3896 50.9744C96.771 50.9744 97.1069 51.0663 97.3974 51.2502C97.6903 51.4341 97.9161 51.694 98.075 52.0299C98.2339 52.3659 98.3168 52.7552 98.3236 53.1978V53.7902ZM97.9048 53.2523C97.9048 52.6553 97.7697 52.1877 97.4996 51.8495C97.2295 51.5112 96.8595 51.3421 96.3896 51.3421C95.9288 51.3421 95.5611 51.5124 95.2864 51.8529C95.014 52.1911 94.8778 52.6644 94.8778 53.2727V53.7902C94.8778 54.3781 95.014 54.8446 95.2864 55.1896C95.5588 55.5324 95.9288 55.7038 96.3964 55.7038C96.8708 55.7038 97.2408 55.5347 97.5064 55.1964C97.772 54.856 97.9048 54.3827 97.9048 53.7766V53.2523ZM102.345 51.4H99.7775V53.1944H101.007C101.345 53.1944 101.638 53.2511 101.885 53.3646C102.132 53.4759 102.321 53.637 102.45 53.8481C102.582 54.057 102.648 54.3044 102.648 54.5904C102.648 55.0285 102.501 55.3735 102.209 55.6255C101.916 55.8752 101.511 56 100.993 56H99.3553V51.0425H102.345V51.4ZM99.7775 53.5519V55.6459H101.003C101.387 55.6459 101.686 55.5517 101.902 55.3633C102.118 55.1726 102.226 54.9127 102.226 54.5836C102.226 54.2703 102.121 54.0218 101.912 53.8379C101.703 53.6518 101.411 53.5564 101.034 53.5519H99.7775ZM107.016 51.0425H107.435V56H107.016V51.7575L104.194 56H103.771V51.0425H104.194V55.2816L107.016 51.0425ZM112.403 51.0425V56H111.984V51.4H109.89L109.774 53.4498C109.729 54.1829 109.658 54.7164 109.563 55.05C109.47 55.3814 109.336 55.6221 109.161 55.7719C108.989 55.9194 108.754 55.9955 108.456 56H108.279V55.6459L108.416 55.6425C108.649 55.6311 108.825 55.5574 108.943 55.4212C109.061 55.285 109.152 55.0648 109.216 54.7606C109.282 54.4542 109.333 53.982 109.369 53.3442L109.492 51.0425H112.403ZM114.064 53.1944H115.293C115.632 53.1944 115.924 53.2511 116.172 53.3646C116.419 53.4759 116.608 53.637 116.737 53.8481C116.869 54.057 116.935 54.3044 116.935 54.5904C116.935 55.0285 116.788 55.3735 116.495 55.6255C116.203 55.8752 115.797 56 115.28 56H113.646V51.0425H114.064V53.1944ZM114.064 53.5519V55.6459H115.29C115.674 55.6459 115.973 55.5517 116.189 55.3633C116.405 55.1726 116.512 54.9127 116.512 54.5836C116.512 54.2703 116.408 54.0218 116.199 53.8379C115.99 53.6518 115.698 53.5564 115.321 53.5519H114.064ZM121.61 56H121.187V53.6234H118.354V56H117.936V51.0425H118.354V53.2693H121.187V51.0425H121.61V56ZM123.298 53.1944H124.527C124.866 53.1944 125.159 53.2511 125.406 53.3646C125.653 53.4759 125.842 53.637 125.971 53.8481C126.103 54.057 126.169 54.3044 126.169 54.5904C126.169 55.0285 126.022 55.3735 125.729 55.6255C125.437 55.8752 125.031 56 124.514 56H122.88V51.0425H123.298V53.1944ZM123.298 53.5519V55.6459H124.524C124.908 55.6459 125.207 55.5517 125.423 55.3633C125.639 55.1726 125.746 54.9127 125.746 54.5836C125.746 54.2703 125.642 54.0218 125.433 53.8379C125.224 53.6518 124.932 53.5564 124.555 53.5519H123.298ZM127.405 56H126.986V51.0425H127.405V56ZM131.433 53.6234H129.114V55.6459H131.78V56H128.695V51.0425H131.763V51.4H129.114V53.2693H131.433V53.6234ZM137.354 51.4H134.783V56H134.364V51.0425H137.354V51.4ZM140.224 54.6108H137.973L137.463 56H137.023L138.899 51.0425H139.298L141.174 56H140.738L140.224 54.6108ZM138.103 54.2533H140.091L139.097 51.5532L138.103 54.2533ZM144.613 52.3364C144.613 52.0254 144.5 51.7802 144.276 51.6009C144.051 51.4216 143.731 51.3319 143.316 51.3319C142.957 51.3319 142.661 51.4273 142.427 51.6179C142.193 51.8086 142.076 52.0503 142.076 52.3432H141.657C141.657 52.0799 141.729 51.8449 141.872 51.6384C142.015 51.4295 142.215 51.2672 142.471 51.1515C142.73 51.0334 143.011 50.9744 143.316 50.9744C143.851 50.9744 144.271 51.0936 144.575 51.3319C144.88 51.5703 145.032 51.9085 145.032 52.3466C145.032 52.5985 144.951 52.8233 144.79 53.0207C144.629 53.2182 144.412 53.3646 144.14 53.46C144.784 53.6325 145.107 54.0308 145.107 54.6551C145.107 55.0841 144.944 55.4268 144.62 55.6833C144.297 55.9398 143.863 56.0681 143.316 56.0681C142.984 56.0681 142.682 56.0057 142.41 55.8808C142.137 55.7537 141.932 55.5835 141.794 55.3701C141.655 55.1545 141.586 54.9059 141.586 54.6244H142.005C142.005 54.9422 142.128 55.2044 142.376 55.411C142.623 55.6152 142.936 55.7174 143.316 55.7174C143.745 55.7174 144.081 55.6232 144.323 55.4348C144.566 55.2441 144.688 54.9888 144.688 54.6687C144.688 54.3305 144.58 54.0785 144.364 53.9128C144.149 53.7448 143.816 53.6586 143.367 53.654H142.733V53.2931H143.346C143.759 53.2909 144.074 53.2103 144.289 53.0514C144.505 52.8902 144.613 52.6519 144.613 52.3364ZM149.717 53.7902C149.717 54.2465 149.637 54.6471 149.478 54.9922C149.322 55.3372 149.097 55.6028 148.804 55.7889C148.511 55.975 148.173 56.0681 147.79 56.0681C147.211 56.0681 146.743 55.8615 146.387 55.4484C146.03 55.033 145.852 54.4735 145.852 53.7698V53.2591C145.852 52.8074 145.932 52.4079 146.091 52.0606C146.252 51.711 146.479 51.4431 146.772 51.257C147.064 51.0686 147.401 50.9744 147.783 50.9744C148.164 50.9744 148.5 51.0663 148.791 51.2502C149.083 51.4341 149.309 51.694 149.468 52.0299C149.627 52.3659 149.71 52.7552 149.717 53.1978V53.7902ZM149.298 53.2523C149.298 52.6553 149.163 52.1877 148.893 51.8495C148.623 51.5112 148.253 51.3421 147.783 51.3421C147.322 51.3421 146.954 51.5124 146.68 51.8529C146.407 52.1911 146.271 52.6644 146.271 53.2727V53.7902C146.271 54.3781 146.407 54.8446 146.68 55.1896C146.952 55.5324 147.322 55.7038 147.79 55.7038C148.264 55.7038 148.634 55.5347 148.9 55.1964C149.165 54.856 149.298 54.3827 149.298 53.7766V53.2523ZM150.772 56V51.0425H152.236C152.767 51.0425 153.17 51.1526 153.445 51.3728C153.72 51.5907 153.857 51.913 153.857 52.3398C153.857 52.5963 153.787 52.8198 153.646 53.0105C153.507 53.1989 153.317 53.334 153.074 53.4157C153.362 53.4793 153.594 53.6211 153.769 53.8413C153.946 54.0615 154.034 54.3157 154.034 54.604C154.034 55.0421 153.892 55.3849 153.608 55.6323C153.327 55.8774 152.934 56 152.43 56H150.772ZM151.191 53.6166V55.6459H152.447C152.806 55.6459 153.09 55.5551 153.299 55.3735C153.51 55.1896 153.615 54.9354 153.615 54.6108C153.615 54.3044 153.514 54.0626 153.312 53.8856C153.113 53.7063 152.836 53.6166 152.481 53.6166H151.191ZM151.191 53.2659H152.335C152.685 53.2591 152.955 53.1774 153.145 53.0207C153.338 52.8618 153.435 52.6314 153.435 52.3295C153.435 52.0118 153.335 51.778 153.135 51.6281C152.938 51.4761 152.638 51.4 152.236 51.4H151.191V53.2659ZM155.474 53.1944H156.704C157.042 53.1944 157.335 53.2511 157.582 53.3646C157.829 53.4759 158.018 53.637 158.147 53.8481C158.279 54.057 158.345 54.3044 158.345 54.5904C158.345 55.0285 158.198 55.3735 157.905 55.6255C157.613 55.8752 157.207 56 156.69 56H155.056V51.0425H155.474V53.1944ZM155.474 53.5519V55.6459H156.7C157.084 55.6459 157.383 55.5517 157.599 55.3633C157.815 55.1726 157.922 54.9127 157.922 54.5836C157.922 54.2703 157.818 54.0218 157.609 53.8379C157.4 53.6518 157.108 53.5564 156.731 53.5519H155.474ZM159.581 56H159.162V51.0425H159.581V56ZM163.609 53.6234H161.29V55.6459H163.956V56H160.871V51.0425H163.939V51.4H161.29V53.2693H163.609V53.6234ZM169.244 52.3364C169.244 52.0254 169.131 51.7802 168.907 51.6009C168.682 51.4216 168.362 51.3319 167.946 51.3319C167.588 51.3319 167.292 51.4273 167.058 51.6179C166.824 51.8086 166.707 52.0503 166.707 52.3432H166.288C166.288 52.0799 166.36 51.8449 166.503 51.6384C166.646 51.4295 166.846 51.2672 167.102 51.1515C167.361 51.0334 167.642 50.9744 167.946 50.9744C168.482 50.9744 168.902 51.0936 169.206 51.3319C169.51 51.5703 169.662 51.9085 169.662 52.3466C169.662 52.5985 169.582 52.8233 169.421 53.0207C169.26 53.2182 169.043 53.3646 168.77 53.46C169.415 53.6325 169.737 54.0308 169.737 54.6551C169.737 55.0841 169.575 55.4268 169.25 55.6833C168.928 55.9398 168.493 56.0681 167.946 56.0681C167.615 56.0681 167.313 56.0057 167.041 55.8808C166.768 55.7537 166.563 55.5835 166.424 55.3701C166.286 55.1545 166.217 54.9059 166.217 54.6244H166.636C166.636 54.9422 166.759 55.2044 167.007 55.411C167.254 55.6152 167.567 55.7174 167.946 55.7174C168.375 55.7174 168.711 55.6232 168.954 55.4348C169.197 55.2441 169.319 54.9888 169.319 54.6687C169.319 54.3305 169.211 54.0785 168.995 53.9128C168.779 53.7448 168.447 53.6586 167.997 53.654H167.364V53.2931H167.977C168.39 53.2909 168.705 53.2103 168.92 53.0514C169.136 52.8902 169.244 52.6519 169.244 52.3364ZM173.36 54.6108H171.11L170.599 56H170.16L172.036 51.0425H172.434L174.31 56H173.874L173.36 54.6108ZM171.239 54.2533H173.227L172.233 51.5532L171.239 54.2533ZM178.702 56H178.284V51.4H175.478V56H175.059V51.0425H178.702V56ZM180.398 53.9809V56H179.979V51.0425H181.668C182.183 51.0425 182.59 51.1742 182.887 51.4375C183.187 51.7008 183.336 52.0628 183.336 52.5236C183.336 52.989 183.192 53.3487 182.904 53.603C182.618 53.8549 182.203 53.9809 181.658 53.9809H180.398ZM180.398 53.6268H181.668C182.074 53.6268 182.384 53.5303 182.598 53.3374C182.811 53.1444 182.918 52.8755 182.918 52.5304C182.918 52.1877 182.811 51.9153 182.598 51.7133C182.386 51.509 182.086 51.4046 181.695 51.4H180.398V53.6268ZM186.483 54.6108H184.232L183.721 56H183.282L185.158 51.0425H185.556L187.433 56H186.997L186.483 54.6108ZM184.361 54.2533H186.35L185.356 51.5532L184.361 54.2533ZM188.165 56V51.0425H189.629C190.16 51.0425 190.563 51.1526 190.837 51.3728C191.112 51.5907 191.249 51.913 191.249 52.3398C191.249 52.5963 191.179 52.8198 191.038 53.0105C190.9 53.1989 190.709 53.334 190.466 53.4157C190.755 53.4793 190.986 53.6211 191.161 53.8413C191.338 54.0615 191.426 54.3157 191.426 54.604C191.426 55.0421 191.285 55.3849 191.001 55.6323C190.719 55.8774 190.327 56 189.823 56H188.165ZM188.583 53.6166V55.6459H189.84C190.198 55.6459 190.482 55.5551 190.691 55.3735C190.902 55.1896 191.008 54.9354 191.008 54.6108C191.008 54.3044 190.907 54.0626 190.705 53.8856C190.505 53.7063 190.228 53.6166 189.874 53.6166H188.583ZM188.583 53.2659H189.727C190.077 53.2591 190.347 53.1774 190.538 53.0207C190.731 52.8618 190.827 52.6314 190.827 52.3295C190.827 52.0118 190.727 51.778 190.528 51.6281C190.33 51.4761 190.03 51.4 189.629 51.4H188.583V53.2659ZM193.558 53.6745H192.877V56H192.458V51.0425H192.877V53.317H193.537L195.454 51.0425H195.982L193.946 53.4804L196.132 56H195.611L193.558 53.6745ZM200.153 51.0425H200.572V56H200.153V51.7575L197.33 56H196.908V51.0425H197.33V55.2816L200.153 51.0425Z" fill="white"/>
<path d="M78 47L210 46.994" stroke="#4C8C2B" stroke-width="0.536398"/>
<path d="M15.1106 46.8927C14.5389 51.2444 15.8918 58.0909 15.8918 58.0909C15.8918 58.0909 -1.23519 42.9772 0.0710975 31.1451C1.23533 20.5998 17.116 19.5161 17.4544 8.9236C17.567 5.39755 15.8918 0 15.8918 0C15.8918 0 32.0672 12.8292 31.9079 23.6213C31.7482 34.4428 16.5225 36.1444 15.1106 46.8927Z" fill="url(#paint0_linear)"/>
<path d="M46.5115 58.0909H22.0909C22.0909 58.0909 23.0107 53.5509 24.0291 50.7511C27.4247 41.4161 39.5161 39.7774 39.728 29.955C39.7951 26.8475 38.3713 22.0909 38.3713 22.0909C38.3713 22.0909 56.6062 36.361 53.6826 47.256C52.3975 52.0453 46.5115 58.0909 46.5115 58.0909Z" fill="url(#paint1_linear)"/>
<defs>
<filter id="filter0_d" x="78.6359" y="17.2125" width="139.248" height="32.8626" filterUnits="userSpaceOnUse" color-interpolation-filters="sRGB">
<feFlood flood-opacity="0" result="BackgroundImageFix"/>
<feColorMatrix in="SourceAlpha" type="matrix" values="0 0 0 0 0 0 0 0 0 0 0 0 0 0 0 0 0 0 127 0"/>
<feOffset dx="4.03756" dy="4.03756"/>
<feGaussianBlur stdDeviation="2.01878"/>
<feColorMatrix type="matrix" values="0 0 0 0 0 0 0 0 0 0 0 0 0 0 0 0 0 0 1 0"/>
<feBlend mode="normal" in2="BackgroundImageFix" result="effect1_dropShadow"/>
<feBlend mode="normal" in="SourceGraphic" in2="effect1_dropShadow" result="shape"/>
</filter>
<linearGradient id="paint0_linear" x1="15.9545" y1="0" x2="15.9545" y2="58.0909" gradientUnits="userSpaceOnUse">
<stop stop-color="#FAB031"/>
<stop offset="0.801494" stop-color="#D83519"/>
<stop offset="1" stop-color="#D01613"/>
</linearGradient>
<linearGradient id="paint1_linear" x1="38.0455" y1="22.0909" x2="38.0455" y2="58.0909" gradientUnits="userSpaceOnUse">
<stop stop-color="#F7B02D"/>
<stop offset="1" stop-color="#E43B18"/>
</linearGradient>
</defs>
</svg>
